# AST/ASF file generated using VICON BodyLanguage
# -----------------------------------------------
:version 1.10
:name VICON
:units
  mass 1.0
  length 0.45
  angle deg
:documentation
   .ast/.asf automatically generated from VICON data using
   VICON BodyBuilder and BodyLanguage model FoxedUp or BRILLIANT.MOD
:root
   order TX TY TZ RX RY RZ
   axis XYZ
   position 0 0 0  
   orientation 0 0 0 
:bonedata
  begin
     id 1 
     name lhipjoint
     direction 0.621036 -0.695554 0.361275 
     length 2.46325 
     axis 0 0 0  XYZ
  end
  begin
     id 2 
     name lfemur
     direction 0.34202 -0.939693 0  
     length 6.54784  
     axis 0 0 20  XYZ
    dof rx ry rz
    limits (-160.0 20.0)
           (-70.0 70.0)
           (-60.0 70.0)
  end
  begin
     id 3 
     name ltibia
     direction 0.34202 -0.939693 0   
     length 7.84737   
     axis 0 0 20   XYZ
    dof rx
    limits (-10.0 170.0)
  end
  begin
     id 4 
     name lfoot
     direction 0.0790693 -0.217241 0.97291   
     length 2.59747   
     axis -90 7.62852e-016 20   XYZ
    dof rx rz
    limits (-45.0 90.0)
           (-70.0 20.0)
  end
  begin
     id 5 
     name ltoes
     direction 1.53572e-011 -4.21898e-011 1   
     length 1.29919   
     axis -90 7.62852e-016 20   XYZ
    dof rx
    limits (-90.0 20.0)
  end
  begin
     id 6 
     name rhipjoint
     direction -0.602353 -0.708375 0.367935   
     length 2.41867  
     axis 0 0 0  XYZ 
  end
  begin
     id 7 
     name rfemur
     direction -0.34202 -0.939693 0   
     length 6.92065   
     axis 0 0 -20   XYZ
    dof rx ry rz
    limits (-160.0 20.0)
           (-70.0 70.0)
           (-70.0 60.0)
  end
  begin
     id 8 
     name rtibia
     direction -0.34202 -0.939693 0   
     length 7.88883   
     axis 0 0 -20   XYZ
    dof rx
    limits (-10.0 170.0)
 end
 begin
     id 9 
     name rfoot
     direction -0.0768692 -0.211196 0.974416   
     length 2.43714  
     axis -90 -7.62852e-016 -20   XYZ
    dof rx rz
    limits (-45.0 90.0)
           (-20.0 70.0)
  end
  begin
     id 10 
     name rtoes
     direction -1.53575e-011 -4.21933e-011 1   
     length 1.22113   
     axis -90 -7.62852e-016 -20   XYZ
    dof rx
    limits (-90.0 20.0)
  end
  begin
     id 11 
     name lowerback
     direction 0.0197937 0.98943 -0.143655   
     length 2.16931   
     axis 0 0 0   XYZ
    dof rx ry rz
    limits (-20.0 45.0)
           (-30.0 30.0)
           (-30.0 30.0)
  end
  begin
     id 12 
     name upperback
     direction -0.00183968 0.999975 0.00684288   
     length 2.17221   
     axis 0 0 0   XYZ
    dof rx ry rz
    limits (-20.0 45.0)
           (-30.0 30.0)
           (-30.0 30.0)
  end
  begin
     id 13 
     name thorax
     direction -0.00950244 0.997208 0.0740685   
     length 2.22549   
     axis 0 0 0   XYZ
    dof rx ry rz
    limits (-20.0 45.0)
           (-30.0 30.0)
           (-30.0 30.0)
  end
  begin
     id 14 
     name lowerneck
     direction 0.0218238 0.996215 0.0841425   
     length 1.77269   
     axis 0 0 0   XYZ
    dof rx ry rz
    limits (-20.0 45.0)
           (-30.0 30.0)
           (-30.0 30.0)
  end
  begin
     id 15 
     name upperneck
     direction -0.00430652 0.994214 -0.107332   
     length 1.76534   
     axis 0 0 0   XYZ
    dof rx ry rz
    limits (-20.0 45.0)
           (-30.0 30.0)
           (-30.0 30.0)
  end
  begin
     id 16
     name head
     direction -0.00328946 0.998959 -0.0454998  
     length 1.82634  
     axis 0 0 0   XYZ
    dof rx ry rz
    limits (-20.0 45.0)
           (-30.0 30.0)
           (-30.0 30.0)
  end
  begin
     id 17 
     name lclavicle
     direction 0.970962 0.239191 0.00450212  
     length 3.84872  
     axis 0 0 0   XYZ
    dof ry rz
    limits (-20.0 10.0)
           (0.0 20.0)
  end
  begin
     id 18 
     name lhumerus
     direction 1 -4.48966e-011 5.74696e-028   
     length 5.22771   
     axis 180 -30 -90   XYZ
    dof rx ry rz
    limits (-60.0 90.0)
           (-90.0 90.0)
           (-90.0 90.0)
  end
  begin
     id 19
     name lradius
     direction 1 -4.4896e-011 4.25109e-027   
     length 3.45251   
     axis 180 -30 -90   XYZ
    dof rx
    limits (-10.0 170.0)
  end
  begin
     id 20
     name lwrist
     direction 1 -4.48971e-011 1.15382e-027   
     length 1.72626   
     axis -5.52449e-016 90 90   XYZ
    dof ry
    limits (-180.0 0.0)
 end
  begin
     id 21 
     name lhand
     direction 1 -4.49034e-011 2.30765e-027   
     length 0.552119   
     axis -1.47248e-015 90 90   XYZ
    dof rx rz
    limits (-90.0 90.0)
           (-45.0 45.0)
  end
  begin
     id 22 
     name lfingers
     direction 1 -4.48951e-011 4.61529e-027   
     length 0.445133   
     axis -2.94495e-015 90 90   XYZ
    dof rx
    limits (0.0 90.0)
  end
  begin
     id 23
     name lthumb
     direction 0.707107 -6.34991e-011 0.707107   
     length 0.639124   
     axis -90 45 2.85299e-015   XYZ
    dof rx rz
    limits (-45.0 45.0)
           (-45.0 45.0)
  end
  begin
     id 24 
     name rclavicle
     direction -0.97424 0.222511 -0.0366699   
     length 3.73439  
     axis 0 0 0   XYZ 
    dof ry rz
    limits (-10.0 20.0)
           (-20.0 0.0)
  end
  begin
     id 25 
     name rhumerus
     direction -1 -4.48956e-011 -4.97258e-028  
     length 5.2398   
     axis 180 30 90   XYZ
    dof rx ry rz
    limits (-90.0 60.0)
           (-90.0 90.0)
           (-90.0 90.0)
  end
  begin
     id 26 
     name rradius
     direction -1 -4.4897e-011 -1.72611e-027   
     length 3.48042   
     axis 180 30 90   XYZ
    dof rx
    limits (-10.0 170.0)
  end
  begin
     id 27 
     name rwrist
     direction -1 -4.48976e-011 1.15382e-027   
     length 1.74021   
     axis -5.52449e-016 -90 -90   XYZ
    dof ry
    limits (-180.0 0.0)
  end
  begin
     id 28
     name rhand
     direction -1 -4.48963e-011 2.30765e-027   
     length 0.618713   
     axis -1.47248e-015 -90 -90   XYZ
    dof rx rz
    limits (-90.0 90.0)
           (-45.0 45.0)
  end
  begin
     id 29
     name rfingers
     direction -1 -4.4888e-011 4.61529e-027   
     length 0.498823   
     axis -2.94495e-015 -90 -90   XYZ
    dof rx
    limits (0.0 90.0)
  end
  begin
     id 30
     name rthumb
     direction -0.707107 -6.34968e-011 0.707107   
     length 0.716213   
     axis -90 -45 -2.85299e-015   XYZ
    dof rx rz
    limits (-45.0 45.0)
           (-45.0 45.0)
  end
:hierarchy
  begin
    root lhipjoint rhipjoint lowerback
    lhipjoint lfemur
    lfemur ltibia
    ltibia lfoot
    lfoot ltoes
    rhipjoint rfemur
    rfemur rtibia
    rtibia rfoot
    rfoot rtoes
    lowerback upperback
    upperback thorax
    thorax lowerneck lclavicle rclavicle
    lowerneck upperneck
    upperneck head
    lclavicle lhumerus
    lhumerus lradius
    lradius lwrist
    lwrist lhand lthumb
    lhand lfingers
    rclavicle rhumerus
    rhumerus rradius
    rradius rwrist
    rwrist rhand rthumb
    rhand rfingers
  end

#!OML:ASF G:\JayActor3\Patient Classification 1\Patient 1\Session 5\male.ASF
:FULLY-SPECIFIED
:DEGREES
312
root -34.3436 17.0749 -6.37497 169.379 -79.597 -172.288
lowerback -1.8023 -0.21691 2.13865
upperback 1.78871 -0.358222 -0.241861
thorax 2.8333 -0.135606 -1.4626
lowerneck -9.13943 1.9765 4.56484
upperneck 14.1947 2.11763 -1.61214
head 5.86633 1.10486 -1.09856
rclavicle -2.31347e-014 5.1684e-015
rhumerus -33.0245 -5.89158 -87.532
rradius 30.2938
rwrist -0.249845
rhand -18.9162 -7.17234
rfingers 7.12502
rthumb 7.38604 -37.0234
lclavicle -2.31347e-014 5.1684e-015
lhumerus -31.0814 5.39758 82.62
lradius 25.0654
lwrist 16.4158
lhand -17.8717 13.4598
lfingers 7.12502
lthumb 8.39417 43.273
rfemur 7.0853 7.66713 22.6622
rtibia 38.0072
rfoot -12.8141 -7.38101
rtoes -7.71908
lfemur -8.21179 10.3373 -19.1896
ltibia 19.6849
lfoot -8.04326 10.3497
ltoes -2.2502
313
root -34.2849 17.0776 -6.3922 168.848 -79.6163 -171.733
lowerback -1.81248 -0.228172 2.30152
upperback 1.78369 -0.37876 -0.233823
thorax 2.83237 -0.142651 -1.54659
lowerneck -9.103 1.9808 4.58561
upperneck 14.1772 2.11764 -1.58577
head 5.85463 1.10784 -1.09392
rclavicle -9.48498e-015 -1.98785e-015
rhumerus -33.0699 -5.72565 -87.6313
rradius 30.4537
rwrist -0.392852
rhand -18.9211 -7.15877
rfingers 7.12502
rthumb 7.38135 -37.01
lclavicle -9.48498e-015 -1.98785e-015
lhumerus -31.1011 5.40155 82.6466
lradius 25.1415
lwrist 16.4804
lhand -17.946 13.3702
lfingers 7.12502
lthumb 8.32246 43.1863
rfemur 7.56507 7.3873 22.8354
rtibia 36.8602
rfoot -13.2581 -7.52093
rtoes -7.76656
lfemur -8.48958 10.0398 -19.0378
ltibia 19.7864
lfoot -7.7915 10.5587
ltoes -2.30421
314
root -34.2254 17.0807 -6.41067 168.086 -79.6171 -170.943
lowerback -1.82453 -0.231263 2.49722
upperback 1.77991 -0.390004 -0.210428
thorax 2.83406 -0.144552 -1.63283
lowerneck -9.0591 1.97856 4.61285
upperneck 14.1459 2.11015 -1.57071
head 5.83727 1.10669 -1.09455
rclavicle 1.61513e-014 1.19271e-015
rhumerus -33.1203 -5.56738 -87.7234
rradius 30.6053
rwrist -0.523774
rhand -18.9205 -7.16331
rfingers 7.12502
rthumb 7.38184 -37.0145
lclavicle 1.61513e-014 1.19271e-015
lhumerus -31.1147 5.40613 82.6744
lradius 25.2306
lwrist 16.5366
lhand -17.9774 13.3202
lfingers 7.12502
lthumb 8.29211 43.1374
rfemur 8.03082 7.12898 23.0733
rtibia 35.7238
rfoot -13.7028 -7.66674
rtoes -7.80463
lfemur -8.77883 9.76052 -18.8278
ltibia 19.8975
lfoot -7.53358 10.7551
ltoes -2.36523
315
root -34.165 17.0844 -6.43054 167.153 -79.5983 -169.981
lowerback -1.83643 -0.226457 2.7129
upperback 1.77923 -0.39188 -0.174494
thorax 2.83931 -0.141478 -1.71701
lowerneck -9.01082 1.97062 4.6477
upperneck 14.104 2.0958 -1.56606
head 5.81577 1.10185 -1.10028
rclavicle -3.41576e-014 5.96354e-015
rhumerus -33.1699 -5.42371 -87.8078
rradius 30.7451
rwrist -0.635728
rhand -18.9141 -7.17873
rfingers 7.12502
rthumb 7.38804 -37.0297
lclavicle -3.41576e-014 5.96354e-015
lhumerus -31.1188 5.42023 82.6992
lradius 25.334
lwrist 16.5763
lhand -17.9698 13.3054
lfingers 7.12502
lthumb 8.29944 43.1223
rfemur 8.47751 6.89577 23.365
rtibia 34.611
rfoot -14.1492 -7.80989
rtoes -7.83482
lfemur -9.07596 9.50572 -18.5698
ltibia 20.0154
lfoot -7.26544 10.9337
ltoes -2.44564
316
root -34.103 17.0884 -6.45169 166.144 -79.5645 -168.941
lowerback -1.84038 -0.216288 2.92964
upperback 1.77989 -0.386818 -0.129366
thorax 2.84189 -0.135093 -1.79196
lowerneck -9.01122 1.97142 4.63399
upperneck 14.0987 2.09136 -1.51625
head 5.81343 1.10261 -1.08266
rclavicle -1.30072e-014 -4.77083e-015
rhumerus -33.2137 -5.28262 -87.8871
rradius 30.8653
rwrist -0.735494
rhand -18.9093 -7.19282
rfingers 7.12502
rthumb 7.3927 -37.0437
lclavicle -1.30072e-014 -4.77083e-015
lhumerus -31.1137 5.44152 82.7238
lradius 25.4498
lwrist 16.6243
lhand -17.9325 13.3259
lfingers 7.12502
lthumb 8.33544 43.1415
rfemur 8.89246 6.6877 23.6899
rtibia 33.5379
rfoot -14.5856 -7.95052
rtoes -7.77893
lfemur -9.37881 9.27599 -18.2822
ltibia 20.1288
lfoot -6.97909 11.0899
ltoes -2.54847
317
root -34.0393 17.0927 -6.47407 165.159 -79.5246 -167.927
lowerback -1.83631 -0.200646 3.12862
upperback 1.78542 -0.373928 -0.0811117
thorax 2.84558 -0.125182 -1.85337
lowerneck -9.00684 1.96475 4.62797
upperneck 14.0665 2.0795 -1.48644
head 5.80189 1.09875 -1.07321
rclavicle -1.11545e-015 5.36719e-015
rhumerus -33.2444 -5.14766 -87.9605
rradius 30.9621
rwrist -0.82611
rhand -18.9067 -7.20381
rfingers 7.12502
rthumb 7.39521 -37.0546
lclavicle -1.11545e-015 5.36719e-015
lhumerus -31.0918 5.46121 82.7525
lradius 25.5742
lwrist 16.6836
lhand -17.8881 13.3373
lfingers 7.12502
lthumb 8.37829 43.1511
rfemur 9.27031 6.49572 24.0223
rtibia 32.518
rfoot -14.9942 -8.0971
rtoes -7.60965
lfemur -9.68368 9.06088 -17.9887
ltibia 20.2315
lfoot -6.6674 11.2329
ltoes -2.66819
318
root -33.9737 17.0972 -6.49685 164.262 -79.4947 -167.007
lowerback -1.81843 -0.183763 3.30492
upperback 1.79557 -0.358185 -0.0379248
thorax 2.84655 -0.114278 -1.90706
lowerneck -9.01335 1.95431 4.61458
upperneck 14.0326 2.06241 -1.45055
head 5.79131 1.09244 -1.06095
rclavicle 9.98505e-015 6.16232e-015
rhumerus -33.2602 -5.019 -88.0301
rradius 31.031
rwrist -0.905724
rhand -18.9157 -7.20407
rfingers 7.12502
rthumb 7.38649 -37.0551
lclavicle 9.98505e-015 6.16232e-015
lhumerus -31.0561 5.48068 82.7805
lradius 25.7108
lwrist 16.7481
lhand -17.8204 13.3819
lfingers 7.12502
lthumb 8.4437 43.1931
rfemur 9.60898 6.29965 24.3339
rtibia 31.5614
rfoot -15.3719 -8.23698
rtoes -7.39315
lfemur -9.9856 8.85848 -17.7109
ltibia 20.3199
lfoot -6.32232 11.355
ltoes -2.83693
319
root -33.9061 17.1013 -6.5196 163.413 -79.4768 -166.143
lowerback -1.78121 -0.168405 3.46771
upperback 1.80916 -0.343345 0.00331062
thorax 2.84025 -0.1042 -1.95513
lowerneck -9.02406 1.94259 4.59376
upperneck 13.9915 2.04396 -1.40934
head 5.77907 1.08549 -1.04588
rclavicle 1.87091e-014 -4.77083e-015
rhumerus -33.2608 -4.8952 -88.0918
rradius 31.0692
rwrist -0.969757
rhand -18.918 -7.20369
rfingers 7.12502
rthumb 7.38427 -37.0548
lclavicle 1.87091e-014 -4.77083e-015
lhumerus -31.0109 5.50508 82.8106
lradius 25.8603
lwrist 16.8108
lhand -17.7627 13.4364
lfingers 7.12502
lthumb 8.49934 43.2454
rfemur 9.90658 6.08967 24.6244
rtibia 30.6714
rfoot -15.7103 -8.36174
rtoes -7.1685
lfemur -10.2858 8.66105 -17.4447
ltibia 20.3978
lfoot -5.9496 11.4611
ltoes -3.03063
320
root -33.8368 17.105 -6.54178 162.684 -79.484 -165.408
lowerback -1.72822 -0.158063 3.60584
upperback 1.82233 -0.333403 0.0357939
thorax 2.82441 -0.0971466 -1.99849
lowerneck -9.02682 1.92956 4.57023
upperneck 13.9487 2.02376 -1.36363
head 5.76481 1.07784 -1.02915
rclavicle -4.29076e-015 -7.35503e-015
rhumerus -33.2587 -4.7759 -88.1475
rradius 31.0779
rwrist -1.02111
rhand -18.9281 -7.19436
rfingers 7.12502
rthumb 7.37457 -37.0458
lclavicle -4.29076e-015 -7.35503e-015
lhumerus -30.9701 5.52848 82.8424
lradius 26.0205
lwrist 16.8617
lhand -17.7229 13.4682
lfingers 7.12502
lthumb 8.53778 43.2756
rfemur 10.1679 5.85333 24.8677
rtibia 29.8465
rfoot -16.0108 -8.45935
rtoes -6.94946
lfemur -10.5865 8.46596 -17.2138
ltibia 20.473
lfoot -5.55279 11.5508
ltoes -3.2697
321
root -33.7658 17.1079 -6.56304 162.036 -79.5173 -164.76
lowerback -1.66289 -0.152689 3.73042
upperback 1.83423 -0.328702 0.0597759
thorax 2.80002 -0.0930624 -2.04315
lowerneck -9.02808 1.91762 4.54309
upperneck 13.9136 2.00426 -1.3099
head 5.75262 1.07089 -1.00927
rclavicle -2.76732e-014 -1.78906e-015
rhumerus -33.2542 -4.67271 -88.1933
rradius 31.0636
rwrist -1.04265
rhand -18.9243 -7.19414
rfingers 7.12502
rthumb 7.37825 -37.0455
lclavicle -2.76732e-014 -1.78906e-015
lhumerus -30.9331 5.55249 82.8746
lradius 26.1878
lwrist 16.8954
lhand -17.7115 13.4733
lfingers 7.12502
lthumb 8.54878 43.2802
rfemur 10.394 5.58199 25.064
rtibia 29.0789
rfoot -16.2679 -8.51746
rtoes -6.7389
lfemur -10.8982 8.27389 -17.0134
ltibia 20.5584
lfoot -5.14769 11.6227
ltoes -3.51942
322
root -33.6932 17.1099 -6.58377 161.397 -79.568 -164.126
lowerback -1.59175 -0.150369 3.85086
upperback 1.84626 -0.327431 0.0803022
thorax 2.77228 -0.0908179 -2.08916
lowerneck -9.00422 1.9005 4.52749
upperneck 13.8588 1.9801 -1.27439
head 5.73011 1.0609 -0.997574
rclavicle 1.28432e-014 -1.39149e-015
rhumerus -33.2505 -4.58625 -88.2297
rradius 31.0332
rwrist -1.04247
rhand -18.8965 -7.20939
rfingers 7.12502
rthumb 7.40507 -37.0598
lclavicle 1.28432e-014 -1.39149e-015
lhumerus -30.9002 5.57681 82.9052
lradius 26.368
lwrist 16.9255
lhand -17.6948 13.4971
lfingers 7.12502
lthumb 8.56484 43.3034
rfemur 10.5911 5.30265 25.241
rtibia 28.3603
rfoot -16.4917 -8.54655
rtoes -6.48317
lfemur -11.2251 8.08788 -16.8253
ltibia 20.6602
lfoot -4.73962 11.6763
ltoes -3.77288
323
root -33.6198 17.1112 -6.60509 160.676 -79.6156 -163.416
lowerback -1.51852 -0.145873 3.97601
upperback 1.86138 -0.3234 0.105639
thorax 2.74679 -0.0871325 -2.13275
lowerneck -8.9765 1.88023 4.51157
upperneck 13.8079 1.95164 -1.23805
head 5.70806 1.04881 -0.985931
rclavicle 3.54128e-014 1.11319e-014
rhumerus -33.2455 -4.51752 -88.2568
rradius 30.9886
rwrist -1.02217
rhand -18.8502 -7.23705
rfingers 7.12502
rthumb 7.44972 -37.0859
lclavicle 3.54128e-014 1.11319e-014
lhumerus -30.8679 5.59845 82.9366
lradius 26.5503
lwrist 16.9466
lhand -17.7059 13.4707
lfingers 7.12502
lthumb 8.55418 43.2774
rfemur 10.7701 5.05356 25.4401
rtibia 27.6817
rfoot -16.687 -8.5777
rtoes -6.21905
lfemur -11.5619 7.91873 -16.6193
ltibia 20.7818
lfoot -4.33525 11.714
ltoes -4.01364
324
root -33.5453 17.1119 -6.62683 159.886 -79.663 -162.642
lowerback -1.44463 -0.139524 4.10591
upperback 1.87896 -0.317033 0.134403
thorax 2.72366 -0.0821952 -2.17539
lowerneck -8.95821 1.85742 4.48159
upperneck 13.7723 1.91893 -1.18693
head 5.69205 1.03498 -0.967595
rclavicle -3.8068e-015 -1.21259e-014
rhumerus -33.2414 -4.46404 -88.2753
rradius 30.9408
rwrist -0.99359
rhand -18.8042 -7.25664
rfingers 7.12502
rthumb 7.49418 -37.1039
lclavicle -3.8068e-015 -1.21259e-014
lhumerus -30.8352 5.61909 82.9679
lradius 26.7406
lwrist 16.9701
lhand -17.7171 13.4592
lfingers 7.12502
lthumb 8.54335 43.2664
rfemur 10.9317 4.84278 25.6608
rtibia 27.0351
rfoot -16.8701 -8.60522
rtoes -5.88649
lfemur -11.9117 7.76848 -16.4001
ltibia 20.9205
lfoot -3.93321 11.7311
ltoes -4.23973
325
root -33.4702 17.1122 -6.64908 159.13 -79.7163 -161.904
lowerback -1.37554 -0.130192 4.22093
upperback 1.90006 -0.306369 0.161022
thorax 2.70724 -0.0752203 -2.21177
lowerneck -8.93913 1.82945 4.45375
upperneck 13.7346 1.88024 -1.14393
head 5.67518 1.01776 -0.952624
rclavicle -9.92332e-015 -3.77691e-015
rhumerus -33.2337 -4.42066 -88.2873
rradius 30.8871
rwrist -0.96615
rhand -18.7594 -7.28602
rfingers 7.12502
rthumb 7.5374 -37.1317
lclavicle -9.92332e-015 -3.77691e-015
lhumerus -30.796 5.62994 83.001
lradius 26.935
lwrist 17.013
lhand -17.7191 13.4552
lfingers 7.12502
lthumb 8.5414 43.2624
rfemur 11.0802 4.67314 25.8835
rtibia 26.4143
rfoot -17.0392 -8.64181
rtoes -5.54745
lfemur -12.2709 7.63216 -16.1898
ltibia 21.0702
lfoot -3.53486 11.7353
ltoes -4.43292
326
root -33.3946 17.1123 -6.67264 158.358 -79.7648 -161.15
lowerback -1.30993 -0.116651 4.32302
upperback 1.92355 -0.289936 0.190239
thorax 2.69572 -0.0655396 -2.23806
lowerneck -8.93476 1.79979 4.4144
upperneck 13.7171 1.83757 -1.08495
head 5.66681 0.999168 -0.930937
rclavicle 2.26234e-014 -4.57205e-015
rhumerus -33.2227 -4.38129 -88.2978
rradius 30.8271
rwrist -0.940612
rhand -18.7235 -7.31614
rfingers 7.12502
rthumb 7.57204 -37.1606
lclavicle 2.26234e-014 -4.57205e-015
lhumerus -30.7539 5.63121 83.0341
lradius 27.1324
lwrist 17.0744
lhand -17.7068 13.4661
lfingers 7.12502
lthumb 8.5533 43.2728
rfemur 11.2145 4.57056 26.1378
rtibia 25.8186
rfoot -17.2051 -8.71907
rtoes -5.21076
lfemur -12.6325 7.51673 -15.97
ltibia 21.2168
lfoot -3.13163 11.7232
ltoes -4.60516
